<mxfile host="app.diagrams.net" modified="2021-09-02T08:47:10.238Z" agent="5.0 (Macintosh; Intel Mac OS X 11_5_0) AppleWebKit/537.36 (KHTML, like Gecko) Chrome/87.0.4280.88 Safari/537.36" etag="4eBHH3B9l6wmUhS8yiT1" version="15.0.6" type="github">
  <diagram id="NM-FnL9aiEsatMu2k_oT" name="Page-1">
    <mxGraphModel dx="786" dy="397" grid="1" gridSize="10" guides="1" tooltips="1" connect="1" arrows="1" fold="1" page="1" pageScale="1" pageWidth="827" pageHeight="1169" math="0" shadow="0">
      <root>
        <mxCell id="0" />
        <mxCell id="1" parent="0" />
        <mxCell id="irNuKJr1E5cWdmTTzUOE-2" value="权益网关" style="shape=module;align=left;spacingLeft=20;align=center;verticalAlign=top;" vertex="1" parent="1">
          <mxGeometry x="90" y="80" width="700" height="240" as="geometry" />
        </mxCell>
        <mxCell id="irNuKJr1E5cWdmTTzUOE-4" value="&lt;p style=&quot;margin: 0px ; margin-top: 6px ; text-align: center&quot;&gt;&lt;b&gt;权益查询&lt;/b&gt;&lt;/p&gt;" style="align=left;overflow=fill;html=1;dropTarget=0;" vertex="1" parent="1">
          <mxGeometry x="180" y="110" width="180" height="80" as="geometry" />
        </mxCell>
        <mxCell id="irNuKJr1E5cWdmTTzUOE-5" value="" style="shape=component;jettyWidth=8;jettyHeight=4;" vertex="1" parent="irNuKJr1E5cWdmTTzUOE-4">
          <mxGeometry x="1" width="20" height="20" relative="1" as="geometry">
            <mxPoint x="-24" y="4" as="offset" />
          </mxGeometry>
        </mxCell>
        <mxCell id="irNuKJr1E5cWdmTTzUOE-6" value="&lt;p style=&quot;margin: 0px ; margin-top: 4px ; text-align: center&quot;&gt;&lt;b&gt;权益&lt;/b&gt;&lt;/p&gt;&lt;hr size=&quot;1&quot;&gt;&lt;div style=&quot;height: 2px&quot;&gt;&lt;/div&gt;" style="verticalAlign=top;align=left;overflow=fill;fontSize=12;fontFamily=Helvetica;html=1;" vertex="1" parent="1">
          <mxGeometry x="210" y="240" width="140" height="60" as="geometry" />
        </mxCell>
        <mxCell id="irNuKJr1E5cWdmTTzUOE-8" value="&lt;p style=&quot;margin: 0px ; margin-top: 4px ; text-align: center&quot;&gt;&lt;b&gt;权益实例&lt;/b&gt;&lt;/p&gt;&lt;hr size=&quot;1&quot;&gt;&lt;div style=&quot;height: 2px&quot;&gt;&lt;/div&gt;" style="verticalAlign=top;align=left;overflow=fill;fontSize=12;fontFamily=Helvetica;html=1;" vertex="1" parent="1">
          <mxGeometry x="410" y="240" width="140" height="60" as="geometry" />
        </mxCell>
        <mxCell id="irNuKJr1E5cWdmTTzUOE-12" style="edgeStyle=orthogonalEdgeStyle;rounded=0;orthogonalLoop=1;jettySize=auto;html=1;exitX=0.5;exitY=0;exitDx=0;exitDy=0;" edge="1" parent="1" source="irNuKJr1E5cWdmTTzUOE-9" target="irNuKJr1E5cWdmTTzUOE-6">
          <mxGeometry relative="1" as="geometry" />
        </mxCell>
        <mxCell id="irNuKJr1E5cWdmTTzUOE-9" value="&lt;p style=&quot;margin: 0px ; margin-top: 4px ; text-align: center&quot;&gt;&lt;b&gt;卡&lt;/b&gt;&lt;/p&gt;&lt;hr size=&quot;1&quot;&gt;&lt;div style=&quot;height: 2px&quot;&gt;&lt;/div&gt;" style="verticalAlign=top;align=left;overflow=fill;fontSize=12;fontFamily=Helvetica;html=1;" vertex="1" parent="1">
          <mxGeometry x="80" y="360" width="140" height="60" as="geometry" />
        </mxCell>
        <mxCell id="irNuKJr1E5cWdmTTzUOE-13" style="edgeStyle=orthogonalEdgeStyle;rounded=0;orthogonalLoop=1;jettySize=auto;html=1;exitX=0.5;exitY=0;exitDx=0;exitDy=0;" edge="1" parent="1" source="irNuKJr1E5cWdmTTzUOE-10">
          <mxGeometry relative="1" as="geometry">
            <mxPoint x="280" y="290" as="targetPoint" />
          </mxGeometry>
        </mxCell>
        <mxCell id="irNuKJr1E5cWdmTTzUOE-10" value="&lt;p style=&quot;margin: 0px ; margin-top: 4px ; text-align: center&quot;&gt;&lt;b&gt;券&lt;/b&gt;&lt;/p&gt;&lt;hr size=&quot;1&quot;&gt;&lt;div style=&quot;height: 2px&quot;&gt;&lt;/div&gt;" style="verticalAlign=top;align=left;overflow=fill;fontSize=12;fontFamily=Helvetica;html=1;" vertex="1" parent="1">
          <mxGeometry x="230" y="360" width="140" height="60" as="geometry" />
        </mxCell>
        <mxCell id="irNuKJr1E5cWdmTTzUOE-14" style="edgeStyle=orthogonalEdgeStyle;rounded=0;orthogonalLoop=1;jettySize=auto;html=1;exitX=0.5;exitY=0;exitDx=0;exitDy=0;" edge="1" parent="1" source="irNuKJr1E5cWdmTTzUOE-11">
          <mxGeometry relative="1" as="geometry">
            <mxPoint x="280" y="290" as="targetPoint" />
          </mxGeometry>
        </mxCell>
        <mxCell id="irNuKJr1E5cWdmTTzUOE-11" value="&lt;p style=&quot;margin: 0px ; margin-top: 4px ; text-align: center&quot;&gt;&lt;b&gt;红包&lt;/b&gt;&lt;/p&gt;&lt;hr size=&quot;1&quot;&gt;&lt;div style=&quot;height: 2px&quot;&gt;&lt;/div&gt;" style="verticalAlign=top;align=left;overflow=fill;fontSize=12;fontFamily=Helvetica;html=1;" vertex="1" parent="1">
          <mxGeometry x="380" y="360" width="140" height="60" as="geometry" />
        </mxCell>
        <mxCell id="irNuKJr1E5cWdmTTzUOE-15" value="&lt;p style=&quot;margin: 0px ; margin-top: 6px ; text-align: center&quot;&gt;&lt;b&gt;权益发放&lt;/b&gt;&lt;/p&gt;" style="align=left;overflow=fill;html=1;dropTarget=0;" vertex="1" parent="1">
          <mxGeometry x="370" y="110" width="180" height="80" as="geometry" />
        </mxCell>
        <mxCell id="irNuKJr1E5cWdmTTzUOE-16" value="" style="shape=component;jettyWidth=8;jettyHeight=4;" vertex="1" parent="irNuKJr1E5cWdmTTzUOE-15">
          <mxGeometry x="1" width="20" height="20" relative="1" as="geometry">
            <mxPoint x="-24" y="4" as="offset" />
          </mxGeometry>
        </mxCell>
        <mxCell id="irNuKJr1E5cWdmTTzUOE-19" value="&lt;p style=&quot;margin: 0px ; margin-top: 6px ; text-align: center&quot;&gt;&lt;b&gt;权益实例查询&lt;/b&gt;&lt;/p&gt;" style="align=left;overflow=fill;html=1;dropTarget=0;" vertex="1" parent="1">
          <mxGeometry x="580" y="110" width="180" height="80" as="geometry" />
        </mxCell>
        <mxCell id="irNuKJr1E5cWdmTTzUOE-20" value="" style="shape=component;jettyWidth=8;jettyHeight=4;" vertex="1" parent="irNuKJr1E5cWdmTTzUOE-19">
          <mxGeometry x="1" width="20" height="20" relative="1" as="geometry">
            <mxPoint x="-24" y="4" as="offset" />
          </mxGeometry>
        </mxCell>
      </root>
    </mxGraphModel>
  </diagram>
</mxfile>
